<svg xmlns="http://www.w3.org/2000/svg" version="1.1" xmlns:xlink="http://www.w3.org/1999/xlink" xmlns:svgjs="http://svgjs.com/svgjs" width="1300" height="610" preserveAspectRatio="none" viewBox="0 0 1300 610"><g mask="url(&quot;#SvgjsMask1222&quot;)" fill="none"><rect width="1300" height="610" x="0" y="0" fill="rgba(19, 80, 227, 1)"></rect><path d="M1044.02 40.18 a110.01 110.01 0 1 0 220.02 0 a110.01 110.01 0 1 0 -220.02 0z" fill="rgba(3, 5, 94, 0.44)" class="triangle-float1"></path><path d="M287.3 388.75 a160.35 160.35 0 1 0 320.7 0 a160.35 160.35 0 1 0 -320.7 0z" fill="rgba(3, 5, 94, 0.44)" class="triangle-float2"></path><path d="M-65.2 603.23 a106.15 106.15 0 1 0 212.3 0 a106.15 106.15 0 1 0 -212.3 0z" fill="rgba(3, 5, 94, 0.44)" class="triangle-float2"></path><path d="M934.24 124.67 a177.86 177.86 0 1 0 355.72 0 a177.86 177.86 0 1 0 -355.72 0z" fill="rgba(3, 5, 94, 0.44)" class="triangle-float2"></path><path d="M1255.393,631.342C1303.621,633.178,1356.247,627.966,1383.354,588.034C1413.339,543.862,1414.398,483.97,1386.213,438.628C1359.34,395.397,1306.292,381.622,1255.393,382.181C1205.67,382.727,1154.081,398.247,1129.456,441.447C1105.015,484.323,1115.984,537.766,1143.261,578.896C1167.704,615.753,1211.199,629.66,1255.393,631.342" fill="rgba(3, 5, 94, 0.44)" class="triangle-float2"></path><path d="M-6.42 424.56 a118.94 118.94 0 1 0 237.88 0 a118.94 118.94 0 1 0 -237.88 0z" fill="rgba(3, 5, 94, 0.44)" class="triangle-float3"></path><path d="M-100.95 176.03 a152.1 152.1 0 1 0 304.2 0 a152.1 152.1 0 1 0 -304.2 0z" fill="rgba(3, 5, 94, 0.44)" class="triangle-float3"></path><path d="M748.53 27.23 a130.88 130.88 0 1 0 261.76 0 a130.88 130.88 0 1 0 -261.76 0z" fill="rgba(3, 5, 94, 0.44)" class="triangle-float1"></path><path d="M724.06 236.4 a113.65 113.65 0 1 0 227.3 0 a113.65 113.65 0 1 0 -227.3 0z" fill="rgba(3, 5, 94, 0.44)" class="triangle-float1"></path></g><defs><mask id="SvgjsMask1222"><rect width="1300" height="610" fill="#ffffff"></rect></mask><style>
            @keyframes float1 {
                0%{transform: translate(0, 0)}
                50%{transform: translate(-10px, 0)}
                100%{transform: translate(0, 0)}
            }

            .triangle-float1 {
                animation: float1 5s infinite;
            }

            @keyframes float2 {
                0%{transform: translate(0, 0)}
                50%{transform: translate(-5px, -5px)}
                100%{transform: translate(0, 0)}
            }

            .triangle-float2 {
                animation: float2 4s infinite;
            }

            @keyframes float3 {
                0%{transform: translate(0, 0)}
                50%{transform: translate(0, -10px)}
                100%{transform: translate(0, 0)}
            }

            .triangle-float3 {
                animation: float3 6s infinite;
            }
        </style></defs></svg>